<svg width="516" height="173" viewBox="0 0 516 173" fill="none" xmlns="http://www.w3.org/2000/svg">
<path d="M148.805 37.5662H97.5198L84.1337 86.3694L103.609 86.3711L79.9384 172.67H34.1641L57.8347 86.3711L38.3594 86.3694L51.7455 37.5662H0.457031L10.7417 0.0703125H159.089L148.805 37.5662Z" fill="#00FF57"/>
<path d="M234.539 0.0703125H188.764L165.094 86.3694L184.569 86.3711L160.898 172.67H206.673L230.343 86.3711L210.868 86.3694L234.539 0.0703125Z" fill="#00FF57"/>
<path d="M515.621 0.0703125L505.336 37.5662H454.047L440.661 86.3694L460.144 86.3711L436.474 172.67H390.699L414.37 86.3711L394.887 86.3694L408.273 37.5662H356.988L367.273 0.0703125H515.621Z" fill="#00FF57"/>
<path d="M311.961 0.0703125H266.186L242.516 86.3694L261.999 86.3711L248.474 135.682H248.191L238.328 172.667V172.67H284.102L284.103 172.667H361.032L370.895 135.682H294.248L307.773 86.3711L288.29 86.3694L311.961 0.0703125Z" fill="#00FF57"/>
</svg>
