<svg width="516" height="173" viewBox="0 0 516 173" fill="none" xmlns="http://www.w3.org/2000/svg">
<path d="M148.805 37.5603H97.5198L84.1337 86.3636L103.609 86.3652L79.9384 172.664H34.1641L57.8347 86.3652L38.3594 86.3636L51.7455 37.5603H0.457031L10.7417 0.0644531H159.089L148.805 37.5603Z" fill="#59FF91"/>
<path d="M234.539 0.0644531H188.764L165.094 86.3636L184.569 86.3652L160.898 172.664H206.673L230.343 86.3652L210.868 86.3636L234.539 0.0644531Z" fill="#59FF91"/>
<path d="M515.621 0.0644531L505.336 37.5603H454.047L440.661 86.3636L460.144 86.3652L436.474 172.664H390.699L414.37 86.3652L394.887 86.3636L408.273 37.5603H356.988L367.273 0.0644531H515.621Z" fill="#59FF91"/>
<path d="M311.961 0.0644531H266.186L242.516 86.3636L261.999 86.3652L248.474 135.676H248.191L238.328 172.661V172.664H284.102L284.103 172.661H361.032L370.895 135.676H294.248L307.773 86.3652L288.29 86.3636L311.961 0.0644531Z" fill="#59FF91"/>
</svg>
