<svg width="516" height="173" viewBox="0 0 516 173" fill="none" xmlns="http://www.w3.org/2000/svg">
<path d="M148.805 37.5544H97.5198L84.1337 86.3577L103.609 86.3594L79.9384 172.659H34.1641L57.8347 86.3594L38.3594 86.3577L51.7455 37.5544H0.457031L10.7417 0.0585938H159.089L148.805 37.5544Z" fill="#FF2424"/>
<path d="M234.539 0.0585938H188.764L165.094 86.3577L184.569 86.3594L160.898 172.659H206.673L230.343 86.3594L210.868 86.3577L234.539 0.0585938Z" fill="#FF2424"/>
<path d="M515.621 0.0585938L505.336 37.5544H454.047L440.661 86.3577L460.144 86.3594L436.474 172.659H390.699L414.37 86.3594L394.887 86.3577L408.273 37.5544H356.988L367.273 0.0585938H515.621Z" fill="#FF2424"/>
<path d="M311.961 0.0585938H266.186L242.516 86.3577L261.999 86.3594L248.474 135.67H248.191L238.328 172.655V172.659H284.102L284.103 172.655H361.032L370.895 135.67H294.248L307.773 86.3594L288.29 86.3577L311.961 0.0585938Z" fill="#FF2424"/>
</svg>
